<?xml version="1.0" encoding="UTF-8" standalone="no"?>
<!-- Created with Inkscape (http://www.inkscape.org/) -->

<svg
   width="362.06482"
   height="202.63235"
   viewBox="0 0 362.06482 202.63236"
   version="1.1"
   id="svg5"
   xmlns="http://www.w3.org/2000/svg"
   xmlns:svg="http://www.w3.org/2000/svg">
  <defs
     id="defs2" />
  <g
     id="layer1"
     transform="translate(241.66639,35.827558)">
    <path
       id="path858"
       style="fill:#008080;stroke:none;stroke-width:0.98051"
       d="m -14.781718,-35.827558 a 71.054922,78.19884 0 0 0 -66.77427,52.024489 63.195416,57.951649 0 0 0 -30.606482,-7.265736 63.195416,57.951649 0 0 0 -61.82192,46.631684 l -5.63409,0.310233 c -34.32307,1.899287 -62.04791,27.672327 -62.04791,62.047908 0,34.37559 27.67232,48.88378 62.04791,48.88378 H 58.350542 c 34.37559,0 62.047888,-27.67615 62.047888,-62.05174 0,-34.375577 -27.724818,-63.947171 -62.047888,-62.047884 l -2.10656,0.114916 a 71.054922,78.19884 0 0 0 0.0306,-0.451956 71.054922,78.19884 0 0 0 -71.05633,-78.195674 z" />
  </g>
</svg>
