<?xml version="1.0" encoding="UTF-8" standalone="no"?>
<svg
   width="108.48047"
   height="114.63867"
   viewBox="0 0 108.48047 114.63867"
   version="1.1"
   id="svg5"
   sodipodi:docname="jmtp_logo_favicon.svg"
   inkscape:version="1.1.2 (0a00cf5339, 2022-02-04)"
   xmlns:inkscape="http://www.inkscape.org/namespaces/inkscape"
   xmlns:sodipodi="http://sodipodi.sourceforge.net/DTD/sodipodi-0.dtd"
   xmlns="http://www.w3.org/2000/svg"
   xmlns:svg="http://www.w3.org/2000/svg">
  <sodipodi:namedview
     id="namedview9"
     pagecolor="#ffffff"
     bordercolor="#666666"
     borderopacity="1.0"
     inkscape:pageshadow="2"
     inkscape:pageopacity="0.0"
     inkscape:pagecheckerboard="0"
     showgrid="false"
     lock-margins="true"
     fit-margin-top="0"
     fit-margin-left="0"
     fit-margin-right="0"
     fit-margin-bottom="0"
     inkscape:zoom="2.2871268"
     inkscape:cx="77.826906"
     inkscape:cy="118.48928"
     inkscape:window-width="1920"
     inkscape:window-height="1043"
     inkscape:window-x="0"
     inkscape:window-y="0"
     inkscape:window-maximized="1"
     inkscape:current-layer="svg5" />
  <defs
     id="defs2">
    <rect
       x="109.15146"
       y="147.05379"
       width="406.19467"
       height="135.56854"
       id="rect2300" />
  </defs>
  <g
     aria-label="JMTP"
     transform="translate(-109.95138,-166.21491)"
     id="text2298"
     style="font-size:80px;line-height:1.25;white-space:pre;shape-inside:url(#rect2300)">
    <path
       id="path832"
       style="font-weight:bold;font-family:Ubuntu;-inkscape-font-specification:'Ubuntu Bold'"
       d="m 133.39279,166.21491 v 36.1582 c 0,3.52 -0.66667,6.02816 -2,7.52149 -1.33334,1.49333 -3.52055,2.24023 -6.56055,2.24023 -2.08,0 -3.99977,-0.34768 -5.75977,-1.04101 -1.76,-0.69334 -3.41427,-1.49373 -4.96093,-2.40039 l -4.16016,9.67968 c 1.70667,1.17334 3.86713,2.21443 6.48047,3.1211 2.61333,0.85333 5.73466,1.2793 9.36133,1.2793 3.94666,0 7.19976,-0.5062 9.75976,-1.51954 2.61334,-1.06666 4.66682,-2.48023 6.16016,-4.24023 1.54666,-1.81333 2.61255,-3.92031 3.19922,-6.32031 0.64,-2.4 0.96093,-4.95969 0.96093,-7.67969 v -36.79883 z m 27.27929,0 c -0.53333,3.68 -1.03953,7.81177 -1.51953,12.39844 -0.42667,4.53333 -0.82784,9.28023 -1.20117,14.24023 -0.32,4.90667 -0.63898,9.84078 -0.95899,14.80078 -0.26666,4.96 -0.50736,9.62667 -0.7207,14 h 12.16016 c 0.16,-5.38666 0.37396,-11.25294 0.64062,-17.59961 0.26667,-6.34666 0.66589,-12.74783 1.19922,-19.20117 0.96,2.24 2.02784,4.72141 3.20117,7.44141 1.17334,2.72 2.31946,5.4382 3.43946,8.1582 1.17333,2.72 2.29271,5.33513 3.35937,7.8418 1.06667,2.45333 1.97404,4.55836 2.7207,6.31836 h 8.72071 c 0.74666,-1.76 1.65208,-3.86503 2.71875,-6.31836 1.06666,-2.50667 2.16125,-5.1218 3.28125,-7.8418 l 3.51953,-8.1582 c 1.17333,-2.72 2.23922,-5.20141 3.19922,-7.44141 0.53333,6.45334 0.9345,12.85451 1.20117,19.20117 0.26667,6.34667 0.47867,12.21295 0.63867,17.59961 h 12.16016 c -0.21334,-4.37333 -0.47883,-9.04 -0.79883,-14 -0.26667,-4.96 -0.5876,-9.89411 -0.96094,-14.80078 -0.32,-4.96 -0.71922,-9.7069 -1.19922,-14.24023 -0.42666,-4.58667 -0.90807,-8.71844 -1.4414,-12.39844 h -11.35938 c -0.96,1.76 -2.07937,3.94526 -3.35937,6.5586 -1.22667,2.56 -2.53326,5.36039 -3.91992,8.40039 -1.33334,2.98666 -2.66667,6.05255 -4,9.19921 -1.33334,3.14667 -2.58644,6.10753 -3.75977,8.88086 -1.17333,-2.77333 -2.42643,-5.73419 -3.75977,-8.88086 -1.33333,-3.14666 -2.69341,-6.21255 -4.08007,-9.19921 -1.33334,-3.04 -2.63993,-5.84039 -3.91993,-8.40039 -1.22666,-2.61334 -2.32125,-4.7986 -3.28125,-6.5586 z"
       sodipodi:nodetypes="csssccccscccsccccccccscsccccccccscccccccccscscccc">
      <title
         id="title834">logo_path</title>
    </path>
  </g>
  <path
     d="m 76.68065,58.5586 c -2.29333,0 -4.96,0.10698 -8,0.32031 -3.04,0.21333 -5.92062,0.58581 -8.64062,1.11914 v 54.64062 H 72.5205 V 96.07813 h 3.91992 c 8.32,0 14.72117,-1.46706 19.20117,-4.40039 4.48001,-2.98667 6.71876,-7.81185 6.71876,-14.47852 0,-6.61333 -2.212,-11.36023 -6.63868,-14.24023 C 91.295,60.02565 84.94732,58.5586 76.68065,58.5586 Z M 6.12012,59.19922 v 10.63867 h 16.72069 v 44.80078 H 35.32128 V 69.83789 H 52.04003 V 59.19922 Z m 71.36132,10 c 1.81333,0 3.46565,0.13177 4.95898,0.39844 1.49333,0.21333 2.74643,0.64125 3.75977,1.28125 1.06666,0.58667 1.86705,1.38706 2.40039,2.40039 0.58666,1.01333 0.88086,2.29318 0.88086,3.83984 0,3.2 -1.09459,5.38526 -3.28125,6.5586 -2.18667,1.17333 -5.43977,1.75976 -9.75977,1.75976 H 72.5205 v -16 c 0.64,-0.0533 1.3869,-0.10487 2.24023,-0.1582 0.90667,-0.0533 1.81404,-0.0801 2.72071,-0.0801 z"
     style="font-weight:bold;font-family:Ubuntu;-inkscape-font-specification:'Ubuntu Bold'"
     id="path854" />
</svg>
